# 3ds Max Wavefront OBJ Exporter v0.97b - (c)2007 guruware
# File Created: 03.07.2013 17:20:16

#
# object Box002
#

v  0.1652 0.4799 -0.2575
v  -0.1470 0.4799 -0.2575
v  -0.1470 0.4799 0.1636
v  0.1652 0.4799 0.1636
v  0.1652 0.3799 0.1636
v  -0.1470 0.3799 0.1636
v  -0.1470 0.3799 -0.2575
v  0.1652 0.3799 -0.2575
v  0.1652 0.4799 -0.3579
v  0.1652 0.3799 -0.3579
v  -0.1470 0.3799 -0.3579
v  -0.1470 0.4799 -0.3579
v  0.2919 0.4799 0.1636
v  0.2919 0.3799 0.1636
v  0.2919 0.3799 -0.2575
v  0.2919 0.4799 -0.2575
v  -0.1470 0.4799 0.2640
v  -0.1470 0.3799 0.2640
v  0.1652 0.3799 0.2640
v  0.1652 0.4799 0.2640
v  -0.2737 0.4799 -0.2575
v  -0.2737 0.3799 -0.2575
v  -0.2737 0.3799 0.1636
v  -0.2737 0.4799 0.1636
v  0.2575 0.4799 -0.2575
v  0.2575 0.4799 0.1636
v  -0.2392 0.4799 0.1636
v  -0.2392 0.4799 -0.2575
v  0.2575 0.3799 0.1636
v  0.2575 0.3799 -0.2575
v  -0.2392 0.3799 -0.2575
v  -0.2392 0.3799 0.1636
v  0.2575 0.4799 -0.3579
v  0.2575 0.3799 -0.3579
v  -0.2392 0.3799 -0.3579
v  -0.2392 0.4799 -0.3579
v  -0.2392 0.4799 0.2640
v  -0.2392 0.3799 0.2640
v  0.2575 0.3799 0.2640
v  0.2575 0.4799 0.2640
v  -0.1470 0.4799 -0.3155
v  0.1652 0.4799 -0.3155
v  0.1652 0.4799 0.2216
v  -0.1470 0.4799 0.2216
v  -0.1470 0.3799 0.2216
v  0.1652 0.3799 0.2216
v  0.1652 0.3799 -0.3155
v  -0.1470 0.3799 -0.3155
v  0.2919 0.3799 0.2216
v  0.2919 0.4799 0.2216
v  0.2919 0.4799 -0.3155
v  0.2919 0.3799 -0.3155
v  -0.2737 0.3799 -0.3155
v  -0.2737 0.4799 -0.3155
v  -0.2737 0.4799 0.2216
v  -0.2737 0.3799 0.2216
v  0.2575 0.4799 -0.3155
v  0.2575 0.4799 0.2216
v  0.1652 1.1539 0.3499
v  0.2575 1.1539 0.3499
v  0.2575 1.1539 0.3075
v  0.1652 1.1539 0.3075
v  0.2575 1.1539 0.2496
v  0.1652 1.1539 0.2496
v  -0.2392 0.4799 0.2216
v  -0.2392 0.4799 -0.3155
v  -0.2392 1.1539 0.3499
v  -0.1470 1.1539 0.3499
v  -0.1470 1.1539 0.3075
v  -0.2392 1.1539 0.3075
v  -0.1470 1.1539 0.2496
v  -0.2392 1.1539 0.2496
v  0.2575 0.3799 0.2216
v  0.2575 0.3799 -0.3155
v  0.2575 0.0000 0.2216
v  0.1652 0.0000 0.2216
v  0.1652 0.0000 0.1636
v  0.2575 0.0000 0.1636
v  0.1652 -0.0000 -0.3155
v  0.2575 -0.0000 -0.3155
v  0.2575 0.0000 -0.2575
v  0.1652 0.0000 -0.2575
v  -0.2392 0.3799 -0.3155
v  -0.2392 0.3799 0.2216
v  -0.2392 -0.0000 -0.3155
v  -0.1470 -0.0000 -0.3155
v  -0.1470 0.0000 -0.2575
v  -0.2392 0.0000 -0.2575
v  -0.1470 0.0000 0.2216
v  -0.2392 0.0000 0.2216
v  -0.2392 0.0000 0.1636
v  -0.1470 0.0000 0.1636
v  0.2575 1.0562 0.3375
v  0.1652 1.0562 0.3375
v  0.2575 1.0562 0.2951
v  0.2575 1.0562 0.2371
v  0.1652 1.0562 0.2371
v  0.1652 1.0562 0.2951
v  -0.1470 1.0562 0.3375
v  -0.2392 1.0562 0.3375
v  -0.1470 1.0562 0.2951
v  -0.1470 1.0562 0.2371
v  -0.2392 1.0562 0.2371
v  -0.2392 1.0562 0.2951
# 104 vertices

vn 0.0000 1.0000 -0.0000
vn -0.0000 1.0000 -0.0000
vn 0.0000 -1.0000 0.0000
vn -0.0000 -1.0000 0.0000
vn 0.0000 -0.0000 -1.0000
vn 1.0000 0.0000 -0.0000
vn -0.0000 -0.0000 1.0000
vn 0.0000 -0.0000 1.0000
vn -1.0000 0.0000 -0.0000
vn 0.0000 1.0000 0.0000
vn 0.0000 -1.0000 -0.0000
vn -0.0000 1.0000 0.0000
vn 0.7760 -0.0000 0.6307
vn 0.9423 -0.0000 0.3347
vn 0.9423 0.0000 0.3347
vn 0.7760 0.0000 -0.6307
vn 0.9423 0.0000 -0.3347
vn 0.9423 -0.0000 -0.3347
vn -0.7760 -0.0000 -0.6307
vn -0.9423 -0.0000 -0.3347
vn -0.7760 0.0000 0.6307
vn -0.9423 0.0000 0.3347
vn -0.9423 -0.0000 0.3347
vn 0.0000 0.0000 1.0000
vn 1.0000 0.0000 0.0000
vn -1.0000 0.0000 0.0000
vn -1.0000 -0.0000 -0.0000
vn 1.0000 -0.0000 -0.0000
vn 0.0000 -0.1265 0.9920
vn 0.0000 0.1265 -0.9920
vn 1.0000 -0.0000 0.0000
vn -1.0000 -0.0000 0.0000
vn -0.0000 -1.0000 -0.0000
vn -0.0000 -0.1265 0.9920
# 34 vertex normals

vt 0.2243 0.1421 0.5840
vt 0.7757 0.1421 0.5840
vt 0.7757 0.7366 0.5840
vt 0.2243 0.7366 0.5840
vt 0.7757 0.7366 0.6706
vt 0.2243 0.7366 0.6706
vt 0.2243 0.1421 0.6706
vt 0.7757 0.1421 0.6706
vt 0.7757 0.5840 0.0005
vt 0.7757 0.6706 0.0005
vt 0.2243 0.6706 0.0005
vt 0.2243 0.5840 0.0005
vt 0.7366 0.5840 0.9995
vt 0.7366 0.6706 0.9995
vt 0.1421 0.6706 0.9995
vt 0.1421 0.5840 0.9995
vt 0.7757 0.5840 0.8782
vt 0.7757 0.6706 0.8782
vt 0.2243 0.6706 0.8782
vt 0.2243 0.5840 0.8782
vt 0.8579 0.5840 0.0005
vt 0.8579 0.6706 0.0005
vt 0.2634 0.6706 0.0005
vt 0.2634 0.5840 0.0005
vt 0.0005 0.1421 0.5840
vt 0.0613 0.1421 0.5840
vt 0.0613 0.7366 0.5840
vt 0.0005 0.7366 0.5840
vt 0.9995 0.7366 0.5840
vt 0.9387 0.7366 0.5840
vt 0.9387 0.1421 0.5840
vt 0.9995 0.1421 0.5840
vt 0.9995 0.7366 0.6706
vt 0.9387 0.7366 0.6706
vt 0.9387 0.1421 0.6706
vt 0.9995 0.1421 0.6706
vt 0.0005 0.1421 0.6706
vt 0.0613 0.1421 0.6706
vt 0.0613 0.7366 0.6706
vt 0.0005 0.7366 0.6706
vt 0.9387 0.5840 0.0005
vt 0.9387 0.6706 0.0005
vt 0.0613 0.6706 0.0005
vt 0.0613 0.5840 0.0005
vt 0.9387 0.5840 0.8782
vt 0.9387 0.6706 0.8782
vt 0.0613 0.6706 0.8782
vt 0.0613 0.5840 0.8782
vt 0.2243 0.0005 0.5840
vt 0.7757 0.0005 0.5840
vt 0.7757 0.0603 0.5840
vt 0.2243 0.0603 0.5840
vt 0.7757 0.8782 0.5840
vt 0.2243 0.8782 0.5840
vt 0.2243 0.8184 0.5840
vt 0.7757 0.8184 0.5840
vt 0.7757 0.8782 0.6706
vt 0.2243 0.8782 0.6706
vt 0.2243 0.8184 0.6706
vt 0.7757 0.8184 0.6706
vt 0.2243 0.0005 0.6706
vt 0.7757 0.0005 0.6706
vt 0.7757 0.0603 0.6706
vt 0.2243 0.0603 0.6706
vt 0.8782 0.5840 0.9387
vt 0.8782 0.6706 0.9387
vt 0.8184 0.6706 0.9995
vt 0.8184 0.5840 0.9995
vt 0.0005 0.6706 0.9387
vt 0.0005 0.5840 0.9387
vt 0.0603 0.5840 0.9995
vt 0.0603 0.6706 0.9995
vt 0.9995 0.5840 0.0613
vt 0.9995 0.6706 0.0613
vt 0.9397 0.6706 0.0005
vt 0.9397 0.5840 0.0005
vt 0.1218 0.6706 0.0613
vt 0.1218 0.5840 0.0613
vt 0.1816 0.5840 0.0005
vt 0.1816 0.6706 0.0005
vt 0.0005 0.0603 0.5840
vt 0.0613 0.0005 0.5840
vt 0.0613 0.0603 0.5840
vt 0.0613 0.8184 0.5840
vt 0.0613 0.8782 0.5840
vt 0.0005 0.8184 0.5840
vt 0.2243 0.9995 0.0005
vt 0.0613 0.9995 0.0005
vt 0.0613 0.9397 0.0005
vt 0.2243 0.9397 0.0005
vt 0.0613 0.8579 0.0005
vt 0.2243 0.8579 0.0005
vt 0.9995 0.8184 0.5840
vt 0.9387 0.8782 0.5840
vt 0.9387 0.8184 0.5840
vt 0.9387 0.0603 0.5840
vt 0.9387 0.0005 0.5840
vt 0.9995 0.0603 0.5840
vt 0.9387 0.9995 0.0005
vt 0.7757 0.9995 0.0005
vt 0.7757 0.9397 0.0005
vt 0.9387 0.9397 0.0005
vt 0.7757 0.8579 0.0005
vt 0.9387 0.8579 0.0005
vt 0.9995 0.8184 0.6706
vt 0.9387 0.8782 0.6706
vt 0.9387 0.8184 0.6706
vt 0.9387 0.0603 0.6706
vt 0.9387 0.0005 0.6706
vt 0.9995 0.0603 0.6706
vt 0.9387 0.8184 0.9995
vt 0.7757 0.8184 0.9995
vt 0.7757 0.7366 0.9995
vt 0.9387 0.7366 0.9995
vt 0.7757 0.0603 0.9995
vt 0.9387 0.0603 0.9995
vt 0.9387 0.1421 0.9995
vt 0.7757 0.1421 0.9995
vt 0.0005 0.0603 0.6706
vt 0.0613 0.0005 0.6706
vt 0.0613 0.0603 0.6706
vt 0.0613 0.8184 0.6706
vt 0.0613 0.8782 0.6706
vt 0.0005 0.8184 0.6706
vt 0.0613 0.0603 0.9995
vt 0.2243 0.0603 0.9995
vt 0.2243 0.1421 0.9995
vt 0.0613 0.1421 0.9995
vt 0.2243 0.8184 0.9995
vt 0.0613 0.8184 0.9995
vt 0.0613 0.7366 0.9995
vt 0.2243 0.7366 0.9995
vt 0.7366 0.6706 0.9387
vt 0.8184 0.6706 0.9387
vt 0.8184 0.9995 0.9387
vt 0.7366 0.9995 0.9387
vt 0.0613 0.6706 0.8184
vt 0.2243 0.6706 0.8184
vt 0.2243 0.9995 0.8184
vt 0.0613 0.9995 0.8184
vt 0.1816 0.6706 0.7757
vt 0.2634 0.6706 0.7757
vt 0.2634 0.9995 0.7757
vt 0.1816 0.9995 0.7757
vt 0.7757 0.6706 0.7366
vt 0.9387 0.6706 0.7366
vt 0.9387 0.9995 0.7366
vt 0.7757 0.9995 0.7366
vt 0.0603 0.6706 0.9387
vt 0.1421 0.6706 0.9387
vt 0.1421 0.9995 0.9387
vt 0.0603 0.9995 0.9387
vt 0.0613 0.6706 0.1421
vt 0.2243 0.6706 0.1421
vt 0.2243 0.9995 0.1421
vt 0.0613 0.9995 0.1421
vt 0.8579 0.6706 0.7757
vt 0.9397 0.6706 0.7757
vt 0.9397 0.9995 0.7757
vt 0.8579 0.9995 0.7757
vt 0.7757 0.6706 0.0603
vt 0.9387 0.6706 0.0603
vt 0.9387 0.9995 0.0603
vt 0.7757 0.9995 0.0603
vt 0.8579 0.6706 0.0613
vt 0.9397 0.6706 0.0613
vt 0.9397 0.9995 0.0613
vt 0.8579 0.9995 0.0613
vt 0.0613 0.6706 0.0603
vt 0.2243 0.6706 0.0603
vt 0.2243 0.9995 0.0603
vt 0.0613 0.9995 0.0603
vt 0.0603 0.6706 0.2243
vt 0.1421 0.6706 0.2243
vt 0.1421 0.9995 0.2243
vt 0.0603 0.9995 0.2243
vt 0.7757 0.6706 0.1421
vt 0.9387 0.6706 0.1421
vt 0.9387 0.9995 0.1421
vt 0.7757 0.9995 0.1421
vt 0.1816 0.6706 0.0613
vt 0.2634 0.6706 0.0613
vt 0.2634 0.9995 0.0613
vt 0.1816 0.9995 0.0613
vt 0.0613 0.6706 0.7366
vt 0.2243 0.6706 0.7366
vt 0.2243 0.9995 0.7366
vt 0.0613 0.9995 0.7366
vt 0.7366 0.6706 0.2243
vt 0.8184 0.6706 0.2243
vt 0.8184 0.9995 0.2243
vt 0.7366 0.9995 0.2243
vt 0.7757 0.6706 0.8184
vt 0.9387 0.6706 0.8184
vt 0.9387 0.9995 0.8184
vt 0.7757 0.9995 0.8184
vt 0.0613 0.0851 0.9819
vt 0.2243 0.0851 0.9819
vt 0.8184 0.5840 0.9387
vt 0.9221 0.0851 0.9387
vt 0.9819 0.0851 0.9387
vt 0.7366 0.5840 0.9387
vt 0.8403 0.0851 0.9387
vt 0.7757 0.5840 0.7366
vt 0.7757 0.0851 0.8403
vt 0.9387 0.0851 0.8403
vt 0.9387 0.5840 0.7366
vt 0.1816 0.5840 0.7757
vt 0.0779 0.0851 0.7757
vt 0.1597 0.0851 0.7757
vt 0.2634 0.5840 0.7757
vt 0.1218 0.5840 0.7757
vt 0.0181 0.0851 0.7757
vt 0.7757 0.0851 0.9819
vt 0.9387 0.0851 0.9819
vt 0.8782 0.5840 0.2243
vt 0.8184 0.5840 0.2243
vt 0.9221 0.0851 0.2243
vt 0.9819 0.0851 0.2243
vt 0.7366 0.5840 0.2243
vt 0.8403 0.0851 0.2243
vt 0.0613 0.5840 0.7366
vt 0.0613 0.0851 0.8403
vt 0.2243 0.0851 0.8403
vt 0.2243 0.5840 0.7366
vt 0.1816 0.5840 0.0613
vt 0.0779 0.0851 0.0613
vt 0.1597 0.0851 0.0613
vt 0.2634 0.5840 0.0613
vt 0.0181 0.0851 0.0613
vt 0.0613 0.0005 0.9995
vt 0.2243 0.0005 0.9995
vt 0.9397 0.0005 0.9387
vt 0.9995 0.0005 0.9387
vt 0.8579 0.0005 0.9387
vt 0.7757 0.0005 0.8579
vt 0.9387 0.0005 0.8579
vt 0.7757 0.0005 0.9995
vt 0.9387 0.0005 0.9995
vt 0.0613 0.0005 0.8579
vt 0.2243 0.0005 0.8579
vt 0.0603 0.0005 0.0613
vt 0.1421 0.0005 0.0613
vt 0.0005 0.0005 0.0613
vt 0.7757 0.8403 0.0851
vt 0.7757 0.9221 0.0851
vt 0.2243 0.9221 0.0851
vt 0.2243 0.8403 0.0851
vt 0.7757 0.9819 0.0851
vt 0.2243 0.9819 0.0851
# 250 texture coords

g Box002
s 2
f 1/1/1 2/2/1 3/3/2 
f 3/3/2 4/4/1 1/1/1 
s 4
f 5/5/3 6/6/3 7/7/4 
f 7/7/4 8/8/3 5/5/3 
s 8
f 9/9/5 10/10/5 11/11/5 
f 11/11/5 12/12/5 9/9/5 
s 16
f 13/13/6 14/14/6 15/15/6 
f 15/15/6 16/16/6 13/13/6 
s 32
f 17/17/7 18/18/8 19/19/7 
f 19/19/7 20/20/7 17/17/7 
s 64
f 21/21/9 22/22/9 23/23/9 
f 23/23/9 24/24/9 21/21/9 
s 2
f 16/25/1 25/26/1 26/27/1 
f 26/27/1 13/28/10 16/25/1 
f 25/26/1 1/1/1 4/4/1 
f 4/4/1 26/27/1 25/26/1 
f 24/29/10 27/30/1 28/31/1 
f 28/31/1 21/32/1 24/29/10 
f 27/30/1 3/3/2 2/2/1 
f 2/2/1 28/31/1 27/30/1 
s 4
f 14/33/3 29/34/3 30/35/3 
f 30/35/3 15/36/11 14/33/3 
f 29/34/3 5/5/3 8/8/3 
f 8/8/3 30/35/3 29/34/3 
f 22/37/11 31/38/3 32/39/3 
f 32/39/3 23/40/3 22/37/11 
f 31/38/3 7/7/4 6/6/3 
f 6/6/3 32/39/3 31/38/3 
s 8
f 33/41/5 34/42/5 10/10/5 
f 10/10/5 9/9/5 33/41/5 
f 35/43/5 36/44/5 12/12/5 
f 12/12/5 11/11/5 35/43/5 
s 32
f 37/45/8 38/46/8 18/18/8 
f 18/18/8 17/17/7 37/45/8 
f 39/47/8 40/48/8 20/20/7 
f 20/20/7 19/19/7 39/47/8 
s 2
f 9/49/1 12/50/1 41/51/1 
f 41/51/1 42/52/1 9/49/1 
f 42/52/1 41/51/1 2/2/1 
f 2/2/1 1/1/1 42/52/1 
f 17/53/1 20/54/1 43/55/10 
f 43/55/10 44/56/12 17/53/1 
f 44/56/12 43/55/10 4/4/1 
f 4/4/1 3/3/2 44/56/12 
s 4
f 19/57/11 18/58/11 45/59/11 
f 45/59/11 46/60/11 19/57/11 
f 46/60/11 45/59/11 6/6/3 
f 6/6/3 5/5/3 46/60/11 
f 11/61/3 10/62/3 47/63/3 
f 47/63/3 48/64/4 11/61/3 
f 48/64/4 47/63/3 8/8/3 
f 8/8/3 7/7/4 48/64/4 
s 16
f 40/65/13 39/66/13 49/67/14 
f 49/67/14 50/68/15 40/65/13 
f 50/68/15 49/67/14 14/14/6 
f 14/14/6 13/13/6 50/68/15 
f 34/69/16 33/70/16 51/71/17 
f 51/71/17 52/72/18 34/69/16 
f 52/72/18 51/71/17 16/16/6 
f 16/16/6 15/15/6 52/72/18 
s 64
f 36/73/19 35/74/19 53/75/20 
f 53/75/20 54/76/20 36/73/19 
f 54/76/20 53/75/20 22/22/9 
f 22/22/9 21/21/9 54/76/20 
f 38/77/21 37/78/21 55/79/22 
f 55/79/22 56/80/23 38/77/21 
f 56/80/23 55/79/22 24/24/9 
f 24/24/9 23/23/9 56/80/23 
s 2
f 51/81/1 33/82/1 57/83/1 
f 51/81/1 57/83/1 25/26/1 
f 25/26/1 16/25/1 51/81/1 
f 58/84/10 40/85/1 50/86/10 
f 58/84/10 50/86/10 13/28/10 
f 13/28/10 26/27/1 58/84/10 
f 33/82/1 9/49/1 42/52/1 
f 42/52/1 57/83/1 33/82/1 
f 57/83/1 42/52/1 1/1/1 
f 1/1/1 25/26/1 57/83/1 
f 59/87/1 60/88/1 61/89/10 
f 61/89/10 62/90/10 59/87/1 
f 62/90/10 61/89/10 63/91/10 
f 63/91/10 64/92/10 62/90/10 
f 55/93/10 37/94/1 65/95/10 
f 55/93/10 65/95/10 27/30/1 
f 27/30/1 24/29/10 55/93/10 
f 66/96/1 36/97/1 54/98/1 
f 66/96/1 54/98/1 21/32/1 
f 21/32/1 28/31/1 66/96/1 
f 67/99/1 68/100/1 69/101/10 
f 69/101/10 70/102/10 67/99/1 
f 70/102/10 69/101/10 71/103/10 
f 71/103/10 72/104/10 70/102/10 
f 12/50/1 36/97/1 66/96/1 
f 66/96/1 41/51/1 12/50/1 
f 41/51/1 66/96/1 28/31/1 
f 28/31/1 2/2/1 41/51/1 
s 4
f 49/105/3 39/106/11 73/107/11 
f 49/105/3 73/107/11 29/34/3 
f 29/34/3 14/33/3 49/105/3 
f 74/108/3 34/109/3 52/110/3 
f 74/108/3 52/110/3 15/36/11 
f 15/36/11 30/35/3 74/108/3 
f 39/106/11 19/57/11 46/60/11 
f 46/60/11 73/107/11 39/106/11 
f 75/111/3 76/112/3 77/113/3 
f 77/113/3 78/114/3 75/111/3 
f 10/62/3 34/109/3 74/108/3 
f 74/108/3 47/63/3 10/62/3 
f 79/115/3 80/116/3 81/117/3 
f 81/117/3 82/118/3 79/115/3 
f 53/119/3 35/120/3 83/121/3 
f 53/119/3 83/121/3 31/38/3 
f 31/38/3 22/37/11 53/119/3 
f 84/122/11 38/123/11 56/124/3 
f 84/122/11 56/124/3 23/40/3 
f 23/40/3 32/39/3 84/122/11 
f 35/120/3 11/61/3 48/64/4 
f 48/64/4 83/121/3 35/120/3 
f 85/125/3 86/126/3 87/127/3 
f 87/127/3 88/128/3 85/125/3 
f 18/58/11 38/123/11 84/122/11 
f 84/122/11 45/59/11 18/58/11 
f 89/129/3 90/130/3 91/131/3 
f 91/131/3 92/132/3 89/129/3 
s off
f 29/133/6 73/134/6 75/135/6 
f 75/135/6 78/136/6 29/133/6 
f 73/137/24 46/138/24 76/139/24 
f 76/139/24 75/140/24 73/137/24 
f 46/141/9 5/142/9 77/143/9 
f 77/143/9 76/144/9 46/141/9 
f 5/145/5 29/146/5 78/147/5 
f 78/147/5 77/148/5 5/145/5 
f 74/149/25 30/150/25 81/151/25 
f 81/151/25 80/152/25 74/149/25 
f 30/153/24 8/154/24 82/155/24 
f 82/155/24 81/156/24 30/153/24 
f 8/157/26 47/158/26 79/159/26 
f 79/159/26 82/160/26 8/157/26 
f 47/161/5 74/162/5 80/163/5 
f 80/163/5 79/164/5 47/161/5 
f 31/165/27 83/166/27 85/167/27 
f 85/167/27 88/168/27 31/165/27 
f 83/169/5 48/170/5 86/171/5 
f 86/171/5 85/172/5 83/169/5 
f 48/173/28 7/174/28 87/175/28 
f 87/175/28 86/176/28 48/173/28 
f 7/177/24 31/178/24 88/179/24 
f 88/179/24 87/180/24 7/177/24 
f 84/181/27 32/182/27 91/183/27 
f 91/183/27 90/184/27 84/181/27 
f 32/185/5 6/186/5 92/187/5 
f 92/187/5 91/188/5 32/185/5 
f 6/189/28 45/190/28 89/191/28 
f 89/191/28 92/192/28 6/189/28 
f 45/193/24 84/194/24 90/195/24 
f 90/195/24 89/196/24 45/193/24 
f 40/48/29 93/197/29 94/198/29 
f 94/198/29 20/20/29 40/48/29 
f 40/65/6 58/199/6 95/200/6 
f 95/200/6 93/201/6 40/65/6 
f 58/199/6 26/202/6 96/203/6 
f 96/203/6 95/200/6 58/199/6 
f 4/204/30 97/205/30 96/206/30 
f 96/206/30 26/207/30 4/204/30 
f 43/208/9 98/209/9 97/210/9 
f 97/210/9 4/211/9 43/208/9 
f 20/212/9 94/213/9 98/209/9 
f 98/209/9 43/208/9 20/212/9 
f 17/17/29 99/214/29 100/215/29 
f 100/215/29 37/45/29 17/17/29 
f 17/216/6 44/217/6 101/218/6 
f 101/218/6 99/219/6 17/216/6 
f 44/217/31 3/220/31 102/221/31 
f 102/221/31 101/218/31 44/217/31 
f 27/222/30 103/223/30 102/224/30 
f 102/224/30 3/225/30 27/222/30 
f 65/226/32 104/227/32 103/228/32 
f 103/228/32 27/229/32 65/226/32 
f 37/78/9 100/230/9 104/227/9 
f 104/227/9 65/226/9 37/78/9 
f 60/231/29 59/232/29 94/198/29 
f 94/198/29 93/197/29 60/231/29 
f 61/233/6 60/234/6 93/201/6 
f 93/201/6 95/200/6 61/233/6 
f 63/235/6 61/233/6 95/200/6 
f 95/200/6 96/203/6 63/235/6 
f 64/236/30 63/237/30 96/206/30 
f 96/206/30 97/205/30 64/236/30 
f 68/238/29 67/239/29 100/215/29 
f 100/215/29 99/214/29 68/238/29 
f 72/240/30 71/241/30 102/224/30 
f 102/224/30 103/223/30 72/240/30 
f 104/227/32 70/242/32 72/243/32 
f 72/243/32 103/228/32 104/227/32 
f 100/230/9 67/244/9 70/242/9 
f 70/242/9 104/227/9 100/230/9 
s 1
f 59/87/1 62/90/12 69/101/10 
f 69/101/10 68/100/1 59/87/1 
f 62/90/12 64/92/12 71/103/10 
f 71/103/10 69/101/10 62/90/12 
s 4
f 64/236/30 97/205/30 102/224/30 
f 102/224/30 71/241/30 64/236/30 
s 1
f 97/245/33 98/246/33 101/247/11 
f 101/247/11 102/248/11 97/245/33 
f 98/246/33 94/249/3 99/250/3 
f 99/250/3 101/247/11 98/246/33 
s 4
f 94/198/34 59/232/34 68/238/34 
f 68/238/34 99/214/34 94/198/34 
# 208 faces

