# 3ds Max Wavefront OBJ Exporter v0.97b - (c)2007 guruware
# File Created: 03.07.2013 17:36:51

#
# object Box001
#

v  -0.0142 -0.0205 0.3040
v  -0.0142 -0.0205 -0.3040
v  0.0142 -0.0205 -0.3040
v  0.0142 -0.0205 0.3040
v  -0.0142 1.1545 0.3040
v  0.0142 1.1545 0.3040
v  0.0142 1.1545 -0.3040
v  -0.0142 1.1545 -0.3040
v  0.0142 0.0000 0.2835
v  0.0142 0.0000 -0.2835
v  0.0142 1.1340 -0.2835
v  0.0142 1.1340 0.2835
v  -0.0142 0.0000 -0.2835
v  -0.0142 0.0000 0.2835
v  -0.0142 1.1340 0.2835
v  -0.0142 1.1340 -0.2835
v  -0.0204 0.0000 0.2835
v  -0.0204 0.0000 -0.2835
v  -0.0204 -0.0205 -0.3040
v  -0.0204 -0.0205 0.3040
v  -0.0204 1.1340 -0.2835
v  -0.0204 1.1545 -0.3040
v  -0.0204 1.1340 0.2835
v  -0.0204 1.1545 0.3040
# 24 vertices

vn 0.0000 -1.0000 -0.0000
vn 0.0000 1.0000 -0.0000
vn 0.0000 0.0000 1.0000
vn 1.0000 0.0000 -0.0000
vn 0.0000 0.0000 -1.0000
vn -1.0000 0.0000 -0.0000
# 6 vertex normals

vt 0.9373 0.0005 0.0005
vt 0.9373 1.6004 0.0005
vt 0.6546 1.6004 0.0005
vt 0.6546 0.0005 0.0005
vt 0.7168 0.0005 0.9995
vt 0.9995 0.0005 0.9995
vt 0.9995 1.6004 0.9995
vt 0.7168 1.6004 0.9995
vt 0.7168 0.0005 0.0005
vt 0.9995 0.0005 0.0005
vt 0.9995 1.6004 0.0005
vt 0.7168 1.6004 0.0005
vt 0.6662 0.0283 0.9995
vt 0.9879 0.0283 0.9995
vt 0.9879 1.5726 0.9995
vt 0.6662 1.5726 0.9995
vt 0.6546 0.0005 0.9995
vt 0.9373 0.0005 0.9995
vt 0.9373 1.6004 0.9995
vt 0.6546 1.6004 0.9995
vt 0.0011 0.0008 0.1807
vt 0.6430 0.0008 0.1806
vt 0.6430 0.9991 0.1806
vt 0.0011 0.9991 0.1807
vt 0.9879 0.0283 0.0005
vt 0.6662 0.0283 0.0005
vt 0.6662 1.5726 0.0005
vt 0.9879 1.5726 0.0005
vt 0.7168 0.0543 0.0179
vt 0.7168 1.5466 0.0179
vt 0.6546 1.5466 0.0179
vt 0.6546 0.0543 0.0179
vt 0.7168 0.0283 0.9659
vt 0.7168 1.5726 0.9659
vt 0.6546 1.5726 0.9659
vt 0.6546 0.0283 0.9659
vt 0.9373 1.5466 0.9821
vt 0.9373 0.0543 0.9821
vt 0.9995 0.0543 0.9821
vt 0.9995 1.5466 0.9821
vt 0.9373 1.5726 0.0341
vt 0.9373 0.0283 0.0341
vt 0.9995 0.0283 0.0341
vt 0.9995 1.5726 0.0341
# 44 texture coords

g Box001
s 2
f 1/1/1 2/2/1 3/3/1 
f 3/3/1 4/4/1 1/1/1 
s 4
f 5/5/2 6/6/2 7/7/2 
f 7/7/2 8/8/2 5/5/2 
s 8
f 1/9/3 4/10/3 6/11/3 
f 6/11/3 5/12/3 1/9/3 
s 16
f 9/13/4 10/14/4 11/15/4 
f 11/15/4 12/16/4 9/13/4 
s 32
f 3/17/5 2/18/5 8/19/5 
f 8/19/5 7/20/5 3/17/5 
s 64
f 13/21/6 14/22/6 15/23/6 
f 15/23/6 16/24/6 13/21/6 
s off
f 17/25/6 18/26/6 19/4/6 
f 19/4/6 20/10/6 17/25/6 
f 18/26/6 21/27/6 22/3/6 
f 22/3/6 19/4/6 18/26/6 
f 21/27/6 23/28/6 24/11/6 
f 24/11/6 22/3/6 21/27/6 
f 23/28/6 17/25/6 20/10/6 
f 20/10/6 24/11/6 23/28/6 
f 10/14/4 9/13/4 4/17/4 
f 4/17/4 3/6/4 10/14/4 
f 9/13/4 12/16/4 6/20/4 
f 6/20/4 4/17/4 9/13/4 
f 12/16/4 11/15/4 7/7/4 
f 7/7/4 6/20/4 12/16/4 
f 11/15/4 10/14/4 3/6/4 
f 3/6/4 7/7/4 11/15/4 
f 14/29/2 13/30/2 18/31/2 
f 18/31/2 17/32/2 14/29/2 
f 13/33/3 16/34/3 21/35/3 
f 21/35/3 18/36/3 13/33/3 
f 16/37/1 15/38/1 23/39/1 
f 23/39/1 21/40/1 16/37/1 
f 15/41/5 14/42/5 17/43/5 
f 17/43/5 23/44/5 15/41/5 
f 2/2/1 1/1/1 20/10/1 
f 20/10/1 19/11/1 2/2/1 
f 1/9/3 5/12/3 24/3/3 
f 24/3/3 20/4/3 1/9/3 
f 5/5/2 8/8/2 22/20/2 
f 22/20/2 24/17/2 5/5/2 
f 8/19/5 2/18/5 19/6/5 
f 19/6/5 22/7/5 8/19/5 
# 44 faces

